<svg version="1.1"
	 xmlns="http://www.w3.org/2000/svg" xmlns:xlink="http://www.w3.org/1999/xlink" xmlns:a="http://ns.adobe.com/AdobeSVGViewerExtensions/3.0/"
	 x="0px" y="0px" width="397.1px" height="338px" viewBox="0 0 397.1 338"
	 style="overflow:scroll;enable-background:new 0 0 397.1 338;" xml:space="preserve">
<style type="text/css">
	.st0{fill:#FFFFFF;}
</style>
<defs>
</defs>
<g>
	<g>
		<path class="st0" d="M167.1,23.3c-4.3-1.2-7.2-1.5-15.8-1.5H62.2v56.7h78c9.3,0,22.3,0,30.9-2.9c17.3-5.8,17.6-19.9,17.6-24.8
			C188.6,46.4,187.6,28.3,167.1,23.3"/>
		<path class="st0" d="M364.3,137.6c-3-4.2-6.5-7.6-10.4-10.7c-2.6-3.3-5.6-6.3-8.8-8.8c-2.6-3.3-5.6-6.3-8.8-8.8
			c-2.6-3.3-5.6-6.3-8.8-8.8c-2.6-3.3-5.6-6.3-8.8-8.8c-2.6-3.3-5.6-6.3-8.8-8.8c-2.6-3.3-5.6-6.3-8.8-8.8c-2.6-3.3-5.6-6.3-8.8-8.8
			c-2.6-3.3-5.6-6.3-8.8-8.8c-2.6-3.3-5.6-6.3-8.8-8.8c-2.6-3.3-5.6-6.3-8.8-8.8c-2.6-3.3-5.6-6.3-8.8-8.8c-2.6-3.3-5.6-6.3-8.8-8.8
			c-2.5-3.1-5.3-5.8-8.3-8.2c0.3,0.4,0.7,0.8,1.1,1.3c4.7,6.1,11.1,18.7,11.1,36.8c0,4.4-0.4,17.5-7.2,29.5c-1.4,2.9-4,7.3-9.7,12.6
			c-2.5,2.3-7.9,7.3-16.5,11.7c-19.7,9.6-45.6,10.2-67.9,10.2H62.5v77.7H8.8H0l123.6,123.6h62.5v-77.7h88.4
			c22.3,0,48.1-0.6,67.9-10.2c8.6-4.4,14-9.3,16.5-11.7c5.7-5.3,8.3-9.6,9.7-12.6c6.8-12,7.2-25.1,7.2-29.5
			C375.5,156.3,369,143.7,364.3,137.6"/>
	</g>

</g>
</svg>
